<svg width="16" height="16" viewBox="0 0 16 16" fill="none" xmlns="http://www.w3.org/2000/svg">
<path fill-rule="evenodd" clip-rule="evenodd" d="M8 16C10.1217 16 12.1566 15.1571 13.6569 13.6569C15.1571 12.1566 16 10.1217 16 8C16 5.87827 15.1571 3.84344 13.6569 2.34315C12.1566 0.842855 10.1217 0 8 0C5.87827 0 3.84344 0.842855 2.34315 2.34315C0.842855 3.84344 0 5.87827 0 8C0 10.1217 0.842855 12.1566 2.34315 13.6569C3.84344 15.1571 5.87827 16 8 16ZM6.28571 10.7143C6.19191 10.7143 6.09903 10.7328 6.01237 10.7687C5.92571 10.8046 5.84697 10.8572 5.78064 10.9235C5.71431 10.9898 5.6617 11.0686 5.6258 11.1552C5.5899 11.2419 5.57143 11.3348 5.57143 11.4286C5.57143 11.5224 5.5899 11.6153 5.6258 11.7019C5.6617 11.7886 5.71431 11.8673 5.78064 11.9336C5.84697 12 5.92571 12.0526 6.01237 12.0885C6.09903 12.1244 6.19191 12.1429 6.28571 12.1429H9.71429C9.80809 12.1429 9.90097 12.1244 9.98763 12.0885C10.0743 12.0526 10.153 12 10.2194 11.9336C10.2857 11.8673 10.3383 11.7886 10.3742 11.7019C10.4101 11.6153 10.4286 11.5224 10.4286 11.4286C10.4286 11.3348 10.4101 11.2419 10.3742 11.1552C10.3383 11.0686 10.2857 10.9898 10.2194 10.9235C10.153 10.8572 10.0743 10.8046 9.98763 10.7687C9.90097 10.7328 9.80809 10.7143 9.71429 10.7143H8.71429V7.42857C8.71429 7.23913 8.63903 7.05745 8.50508 6.9235C8.37112 6.78954 8.18944 6.71429 8 6.71429H6.85714C6.6677 6.71429 6.48602 6.78954 6.35207 6.9235C6.21811 7.05745 6.14286 7.23913 6.14286 7.42857C6.14286 7.61801 6.21811 7.79969 6.35207 7.93365C6.48602 8.0676 6.6677 8.14286 6.85714 8.14286H7.28571V10.7143H6.28571ZM9.14286 4.57143C9.14286 4.87453 9.02245 5.16522 8.80812 5.37955C8.59379 5.59388 8.3031 5.71429 8 5.71429C7.6969 5.71429 7.40621 5.59388 7.19188 5.37955C6.97755 5.16522 6.85714 4.87453 6.85714 4.57143C6.85714 4.26832 6.97755 3.97763 7.19188 3.76331C7.40621 3.54898 7.6969 3.42857 8 3.42857C8.3031 3.42857 8.59379 3.54898 8.80812 3.76331C9.02245 3.97763 9.14286 4.26832 9.14286 4.57143Z" fill="black"/>
</svg>
