<svg width="100" height="100" viewBox="0 0 100 100" fill="none" xmlns="http://www.w3.org/2000/svg">
<path d="M56.3569 7.49929C55.7575 6.32927 54.8468 5.34737 53.7251 4.66173C52.6035 3.97608 51.3143 3.61328 49.9998 3.61328C48.6851 3.61328 47.396 3.97608 46.2743 4.66173C45.1527 5.34737 44.242 6.32927 43.6426 7.49929L4.35688 86.0707C3.80895 87.1579 3.54808 88.3671 3.59903 89.5843C3.64999 90.8007 4.01109 91.9836 4.64804 93.0214C5.28498 94.0593 6.17663 94.9171 7.23833 95.5129C8.29998 96.1093 9.4964 96.4243 10.714 96.4279H89.2853C90.5031 96.4243 91.6996 96.1093 92.761 95.5129C93.8231 94.9171 94.7146 94.0593 95.3517 93.0214C95.9881 91.9836 96.3496 90.8007 96.4003 89.5843C96.4517 88.3671 96.1903 87.1579 95.6424 86.0707L56.3569 7.49929Z" stroke="#FFB547" stroke-width="3" stroke-linecap="round" stroke-linejoin="round"/>
<path d="M50 35.7143V58.9286" stroke="#FFB547" stroke-width="3" stroke-linecap="round" stroke-linejoin="round"/>
<path d="M49.9996 78.5714C49.0134 78.5714 48.2139 77.7721 48.2139 76.7857C48.2139 75.7993 49.0134 75 49.9996 75" stroke="#FFB547" stroke-width="3" stroke-linecap="round" stroke-linejoin="round"/>
<path d="M50 78.5714C50.9862 78.5714 51.7857 77.7721 51.7857 76.7857C51.7857 75.7993 50.9862 75 50 75" stroke="#FFB547" stroke-width="3" stroke-linecap="round" stroke-linejoin="round"/>
</svg>
